<?xml version="1.0" encoding="UTF-8"?>
<svg xmlns="http://www.w3.org/2000/svg" version="1.1" viewBox="0 0 1024 768">
  <defs>
    <style>
      .cls-1 {
        fill: #1d1d1b;
      }

      .cls-1, .cls-2, .cls-3, .cls-4, .cls-5, .cls-6, .cls-7, .cls-8, .cls-9 {
        stroke-miterlimit: 10;
      }

      .cls-1, .cls-7 {
        stroke: #1d1d1b;
      }

      .cls-2 {
        stroke-dasharray: 6.07 6.07;
      }

      .cls-2, .cls-3, .cls-4, .cls-5, .cls-6, .cls-9 {
        stroke-width: .5px;
      }

      .cls-2, .cls-4, .cls-5, .cls-10, .cls-6, .cls-7, .cls-8, .cls-9 {
        fill: none;
      }

      .cls-2, .cls-4, .cls-6 {
        stroke: #0c6a81;
      }

      .cls-3 {
        fill: #d9d9d9;
        stroke: #566876;
      }

      .cls-4 {
        stroke-dasharray: 6;
      }

      .cls-5 {
        stroke: #eb9386;
      }

      .cls-11 {
        fill: #eb9386;
      }

      .cls-12 {
        font-size: 38.56px;
      }

      .cls-12, .cls-13 {
        fill: #566876;
      }

      .cls-12, .cls-13, .cls-14 {
        font-family: MyriadPro-Regular, 'Myriad Pro';
      }

      .cls-13 {
        font-size: 24.1px;
      }

      .cls-8 {
        stroke: #b58a8f;
      }

      .cls-15 {
        fill: #006580;
      }

      .cls-14 {
        fill: #616160;
        font-size: 30.46px;
      }

      .cls-9 {
        stroke: #006580;
      }
    </style>
  </defs>
  <!-- Generator: Adobe Illustrator 28.7.1, SVG Export Plug-In . SVG Version: 1.2.0 Build 142)  -->
  <g>
    <g id="Ebene_1">
      <text class="cls-12" transform="translate(315.07 67.39)"><tspan x="0" y="0">Cut site determination</tspan></text>
      <text class="cls-13" transform="translate(255.15 97.05)"><tspan x="0" y="0">(1)</tspan><tspan x="-24.24" y="28.92">Collect </tspan><tspan x="-43.69" y="57.84">abundance</tspan><tspan x="-89.33" y="86.76">of start/end cut sites</tspan><tspan x="-61.43" y="115.67">from bam files </tspan></text>
      <text class="cls-13" transform="translate(479.16 97.05)"><tspan x="0" y="0">(2)</tspan><tspan x="-20.06" y="28.92">Define</tspan><tspan x="-62.31" y="57.84">mean and stdd</tspan><tspan x="-24.6" y="86.76">of sites </tspan><tspan x="-51.97" y="115.67">per template</tspan></text>
      <text class="cls-13" transform="translate(700.21 97.05)"><tspan x="0" y="0">(3)</tspan><tspan x="-76.17" y="28.92">Extract significant</tspan><tspan x="-61.19" y="57.84">abundant sites</tspan><tspan x="-80.51" y="86.76">( &gt; mean + 2*stdd)</tspan></text>
      <g>
        <g>
          <line class="cls-5" x1="414.06" y1="616.04" x2="414.06" y2="618.9"/>
          <rect class="cls-11" x="412.43" y="615.79" width="3.25" height=".5"/>
          <rect class="cls-11" x="412.43" y="618.65" width="3.25" height=".5"/>
        </g>
        <path class="cls-7" d="M129.19,279.44v378.47"/>
        <line class="cls-1" x1="130.99" y1="657.91" x2="868.1" y2="661.51"/>
        <path class="cls-3" d="M127.45,656.84c9.91-5.41,19.82-10.81,29.74-16.22,4.9-9.39,24.23,1.57,27.81-8.37.76-2.11,1.93-4.03,3.77-5.31.2-.14.41-.29.61-.45,7.12-5.38,11.07-13.98,11.13-22.91v-1.07c.06-8,6.68-14.54,14.66-13.91,8.31.65,3.7-16.04,10.96-18.26,13.33-4.08,25.68,0,31.09-12.17,4.5-10.13,10.02-2.25,17.8-7.38,4.35-2.87-1.26-19.63,7.43-16.5,4.91,1.77,3.75,13.4,5.41,16.22.8,1.36,10.72,11.04,10.81,12.62l4.72,11.24c.34,5.57,5.18,9.65,10.75,9.31,4.55-.28,8.12,9.27,13.36,11.89,7.73,3.87,13.87,1.71,16.22,5.41,5.95,9.39,3.96,13.32,9.01,18.02,3.78,3.52,9.42,5.41,20.73,5.41,5.79,0,7.75-1.25,9.75-.79,7.28,1.66,7.48,11.58,11.88,11.6,3.13.01,8.33-.23,10.81-4.51,1.58-2.72.03-9.6.62-11.45,1.16-3.06,5.49-3.57,6.65-6.63.63-3.5-.05-10.63-.06-12.56-.02-4.19,4.71-2.69,4.45-6.87,0-.14,3.06-2.26,3.27-2.53.85-1.13,1.94-9.24,3.1-11.32,2.18-3.93,3.86-.34,4.79,12.33-.64,1.44.62,6.81.62,8.39,0,4.23,5.39,11.65,5.41,11.71l8.11,6.31c2.24,3.14-.15,16.13,6.31,15.32,14.42-1.8,10.01,19.74,19.82,11.71,2.09-1.71,6.8.66,12.62-7.21,7.79-10.55,12.42-10.77,17.57-13.52,1.77-.94,2.18-3.49,2.42-4.01.79-1.79.84-2.65,1.48-5.12,1.11-4.31,1.67-6.47,3.24-8.56,1.48-1.96,3.17-3.02,4.07-3.57,3.28-2.01,5.75-.57,7.5-2.44,4.2-4.51,9.07-10.98,12.38-19.55,4.84-12.56,14.56-.25,18.02-20.73.35-2.1.76-3.88,1.55-14.38.77-10.27.59-9.71.86-11.45.73-4.6,1.68-10.52,5.69-16.52,4.63-6.92,10.98-9.99,13.97-11.83,4.44-2.72,8.41-3.23,9.46-3.49,21.33-5.36,33.08-8.68,33.74-26.86.14-3.98-.07-3-.23-9.01-.38-14.63,0-21.99,0-23.43.03-8.16-.62-11.9.23-20.95.15-1.59-.23-11.49.51-21.12.14-1.86,2.7-7.88,7.21-10.36,1.47-.81,4.74.68,12.62,0,10.18-.88,9.91-2.74,12.62-4.06,2.29-1.11-1.61,1.29,0,0,6.21-4.97,5.17-8.72,5.41-8.56.21.14,2.64-3.65,2.7-3.6.09.06,3.17-2.33,5.41-11.71.67-2.8,14.98-.53,15.94-3.89,1.34-4.71,3.33-.25,4.96-5.18,1.07-3.26.9-3.83.68-9.91-.19-5.19-.73-14.62-.68-16.45.23-7.43,1.03-10.49,1.35-11.04,3.6-6.08,11.66-7.94,12.62-4.28.28,1.07,3.38,2.93,4.79,9.52,1.04,4.87-.14,10.64,2.25,17.35,4.7,13.15-1.22-5.61,9.91,25.23,6.38,17.69,7.15,20.57,7.66,24.78.52,4.23-.04,3.03.45,15.77.72,18.54,1.93,21.69,4.06,24.33,3.48,4.33,8.91,6.65,11.26,7.66,5.6,2.4,6.68,1.11,9.91,3.15,4.93,3.11,6.62,8.74,9.01,17.12,1.57,5.51.87,5.18,3.15,15.77,2.63,12.21,4.33,16.16,4.96,17.57,2.48,5.55,3.82,8.54,6.76,11.26,9.11,8.44,20.58,2.31,27.48,10.81,1.63,2.01,2.29,4.2,3.6,8.56.5,1.67,2.16,7.52,1.8,19.82-.26,9.05-1.21,7.74-.9,12.62.66,10.54,5.15,17.63,6.31,19.37,2.94,4.43,5.03,7.57,9.01,9.01,6.37,2.3,10.43-2.32,15.32.45,2.7,1.53,3.75,4.47,5.86,10.36,2.73,7.64,1.6,9.74,4.06,16.67,2.38,6.72,3.74,5.56,5.86,11.71,2.73,7.96,2.42,15.58,2.25,18.92-.39,7.82-2.05,9.8-.45,12.62,2.44,4.3,9.36,5.07,15.32,4.96"/>
        <text class="cls-14" transform="translate(101.49 580.75) rotate(-90)"><tspan x="0" y="0">absolute coverage</tspan></text>
        <text class="cls-14" transform="translate(390.67 745.38)"><tspan x="0" y="0">Position on 45S</tspan></text>
        <line class="cls-10" x1="165.24" y1="677.73" x2="358.07" y2="679.54"/>
        <line class="cls-8" x1="140.12" y1="674.13" x2="367.71" y2="674.13"/>
        <text class="cls-14" transform="translate(241.8 701.8)"><tspan x="0" y="0">18S</tspan></text>
        <line class="cls-10" x1="382.71" y1="672.16" x2="575.55" y2="673.97"/>
        <line class="cls-8" x1="402.52" y1="674.13" x2="434.62" y2="674.13"/>
        <text class="cls-14" transform="translate(392 700.91)"><tspan x="0" y="0">5.8S</tspan></text>
        <line class="cls-10" x1="525.19" y1="674.13" x2="841.48" y2="674.13"/>
        <line class="cls-8" x1="492.45" y1="674.13" x2="867.32" y2="674.13"/>
        <text class="cls-14" transform="translate(672.45 703.39)"><tspan x="0" y="0">28S</tspan></text>
        <line class="cls-10" x1="803.9" y1="681.63" x2="996.74" y2="683.43"/>
        <g>
          <line class="cls-9" x1="618.72" y1="397.91" x2="618.31" y2="487.8"/>
          <rect class="cls-15" x="618.47" y="396.29" width=".5" height="3.25" transform="translate(218.01 1014.83) rotate(-89.74)"/>
          <rect class="cls-15" x="618.06" y="486.17" width=".5" height="3.25" transform="translate(127.65 1103.84) rotate(-89.73)"/>
        </g>
        <g>
          <line class="cls-9" x1="553.62" y1="526.6" x2="553.62" y2="570.25"/>
          <rect class="cls-15" x="551.99" y="526.35" width="3.25" height=".5"/>
          <rect class="cls-15" x="551.99" y="570" width="3.25" height=".5"/>
        </g>
        <g>
          <line class="cls-9" x1="684.71" y1="316.78" x2="685.17" y2="352.41"/>
          <rect class="cls-15" x="683.08" y="316.53" width="3.25" height=".5" transform="translate(-4.12 9.05) rotate(-.76)"/>
          <rect class="cls-15" x="683.55" y="352.16" width="3.25" height=".5" transform="translate(-4.59 9.06) rotate(-.76)"/>
        </g>
        <g>
          <line class="cls-5" x1="536.48" y1="575.04" x2="536.38" y2="582.98"/>
          <rect class="cls-11" x="536.23" y="573.42" width=".5" height="3.25" transform="translate(-44.94 1104.6) rotate(-89.31)"/>
          <rect class="cls-11" x="536.13" y="581.35" width=".5" height="3.25" transform="translate(-52.97 1112.35) rotate(-89.31)"/>
        </g>
        <g>
          <line class="cls-9" x1="518.36" y1="601.61" x2="518.36" y2="621.84"/>
          <rect class="cls-15" x="516.73" y="601.36" width="3.25" height=".5"/>
          <rect class="cls-15" x="516.73" y="621.59" width="3.25" height=".5"/>
        </g>
        <g>
          <line class="cls-5" x1="570.96" y1="508.57" x2="570.96" y2="513.03"/>
          <rect class="cls-11" x="569.34" y="508.32" width="3.25" height=".5"/>
          <rect class="cls-11" x="569.34" y="512.78" width="3.25" height=".5"/>
        </g>
        <g>
          <line class="cls-5" x1="653.87" y1="377.46" x2="654.08" y2="388.68"/>
          <rect class="cls-11" x="652.24" y="377.21" width="3.25" height=".5" transform="translate(-7.16 12.68) rotate(-1.11)"/>
          <rect class="cls-11" x="652.46" y="388.43" width="3.25" height=".5" transform="translate(-7.33 12.61) rotate(-1.1)"/>
        </g>
        <g>
          <line class="cls-5" x1="663.63" y1="362.3" x2="663.63" y2="373.95"/>
          <rect class="cls-11" x="662" y="362.05" width="3.25" height=".5"/>
          <rect class="cls-11" x="662" y="373.7" width="3.25" height=".5"/>
        </g>
        <g>
          <line class="cls-9" x1="409.48" y1="618.58" x2="409.48" y2="633.11"/>
          <rect class="cls-15" x="407.86" y="618.33" width="3.25" height=".5"/>
          <rect class="cls-15" x="407.86" y="632.86" width="3.25" height=".5"/>
        </g>
        <g>
          <line class="cls-9" x1="417.6" y1="601.31" x2="417.6" y2="615.64"/>
          <rect class="cls-15" x="415.98" y="601.06" width="3.25" height=".5"/>
          <rect class="cls-15" x="415.98" y="615.39" width="3.25" height=".5"/>
        </g>
        <g>
          <line class="cls-9" x1="425.43" y1="579.37" x2="425.43" y2="593.23"/>
          <rect class="cls-15" x="423.81" y="579.12" width="3.25" height=".5"/>
          <rect class="cls-15" x="423.81" y="592.98" width="3.25" height=".5"/>
        </g>
        <g>
          <line class="cls-9" x1="279.51" y1="536.11" x2="279.58" y2="550.2"/>
          <rect class="cls-15" x="277.88" y="535.86" width="3.25" height=".5" transform="translate(-2.74 1.44) rotate(-.29)"/>
          <rect class="cls-15" x="277.96" y="549.95" width="3.25" height=".5" transform="translate(-2.85 1.46) rotate(-.3)"/>
        </g>
        <g>
          <line class="cls-5" x1="264.87" y1="554.76" x2="264.87" y2="558.99"/>
          <rect class="cls-11" x="263.24" y="554.51" width="3.25" height=".5"/>
          <rect class="cls-11" x="263.24" y="558.74" width="3.25" height=".5"/>
        </g>
        <g>
          <line class="cls-9" x1="227.06" y1="574.59" x2="227.06" y2="585.8"/>
          <rect class="cls-15" x="225.43" y="574.34" width="3.25" height=".5"/>
          <rect class="cls-15" x="225.43" y="585.55" width="3.25" height=".5"/>
        </g>
        <g>
          <line class="cls-5" x1="208.1" y1="593.74" x2="208.1" y2="599.76"/>
          <rect class="cls-11" x="206.47" y="593.49" width="3.25" height=".5"/>
          <rect class="cls-11" x="206.47" y="599.51" width="3.25" height=".5"/>
        </g>
        <g>
          <line class="cls-5" x1="196.83" y1="624.1" x2="196.83" y2="627.92"/>
          <rect class="cls-11" x="195.21" y="623.85" width="3.25" height=".5"/>
          <rect class="cls-11" x="195.21" y="627.67" width="3.25" height=".5"/>
        </g>
        <g>
          <line class="cls-5" x1="166.23" y1="638.69" x2="166.25" y2="640.31"/>
          <rect class="cls-11" x="164.61" y="638.44" width="3.25" height=".5" transform="translate(-5.65 1.5) rotate(-.51)"/>
          <rect class="cls-11" x="164.62" y="640.06" width="3.25" height=".5" transform="translate(-5.66 1.5) rotate(-.51)"/>
        </g>
        <g>
          <line class="cls-5" x1="162.45" y1="640.43" x2="162.42" y2="643.8"/>
          <rect class="cls-11" x="162.2" y="638.8" width=".5" height="3.25" transform="translate(-479.14 798.22) rotate(-89.58)"/>
          <rect class="cls-11" x="162.17" y="642.18" width=".5" height="3.25" transform="translate(-482.55 801.55) rotate(-89.58)"/>
        </g>
        <g>
          <line class="cls-5" x1="158.82" y1="643.29" x2="158.82" y2="646.17"/>
          <rect class="cls-11" x="157.19" y="643.04" width="3.25" height=".5"/>
          <rect class="cls-11" x="157.19" y="645.92" width="3.25" height=".5"/>
        </g>
        <g>
          <line class="cls-5" x1="155.54" y1="645.66" x2="155.54" y2="646.17"/>
          <rect class="cls-11" x="153.91" y="645.41" width="3.25" height=".5"/>
          <rect class="cls-11" x="153.91" y="645.92" width="3.25" height=".5"/>
        </g>
        <g>
          <line class="cls-5" x1="153.41" y1="646.5" x2="153.41" y2="647.01"/>
          <rect class="cls-11" x="151.78" y="646.25" width="3.25" height=".5"/>
          <rect class="cls-11" x="151.78" y="646.76" width="3.25" height=".5"/>
        </g>
        <g>
          <line class="cls-5" x1="151.61" y1="647.35" x2="151.61" y2="647.86"/>
          <rect class="cls-11" x="149.98" y="647.1" width="3.25" height=".5"/>
          <rect class="cls-11" x="149.98" y="647.61" width="3.25" height=".5"/>
        </g>
        <g>
          <line class="cls-5" x1="148.57" y1="648.19" x2="148.57" y2="648.7"/>
          <rect class="cls-11" x="146.94" y="647.94" width="3.25" height=".5"/>
          <rect class="cls-11" x="146.94" y="648.45" width="3.25" height=".5"/>
        </g>
        <g>
          <line class="cls-5" x1="213.43" y1="591.08" x2="213.43" y2="593.34"/>
          <rect class="cls-11" x="211.8" y="590.83" width="3.25" height=".5"/>
          <rect class="cls-11" x="211.8" y="593.09" width="3.25" height=".5"/>
        </g>
        <g>
          <line class="cls-5" x1="204.98" y1="600.2" x2="204.98" y2="606.3"/>
          <rect class="cls-11" x="203.35" y="599.95" width="3.25" height=".5"/>
          <rect class="cls-11" x="203.35" y="606.05" width="3.25" height=".5"/>
        </g>
        <g>
          <line class="cls-5" x1="185.83" y1="636.7" x2="185.83" y2="638.06"/>
          <rect class="cls-11" x="184.21" y="636.45" width="3.25" height=".5"/>
          <rect class="cls-11" x="184.21" y="637.81" width="3.25" height=".5"/>
        </g>
        <g>
          <line class="cls-5" x1="188.98" y1="631.85" x2="188.98" y2="636.26"/>
          <rect class="cls-11" x="187.36" y="631.6" width="3.25" height=".5"/>
          <rect class="cls-11" x="187.36" y="636.01" width="3.25" height=".5"/>
        </g>
        <g>
          <line class="cls-5" x1="193.04" y1="628.59" x2="193.04" y2="631.75"/>
          <rect class="cls-11" x="191.41" y="628.34" width="3.25" height=".5"/>
          <rect class="cls-11" x="191.41" y="631.5" width="3.25" height=".5"/>
        </g>
        <g>
          <line class="cls-5" x1="224.09" y1="586.36" x2="224.09" y2="590.41"/>
          <rect class="cls-11" x="222.46" y="586.11" width="3.25" height=".5"/>
          <rect class="cls-11" x="222.46" y="590.16" width="3.25" height=".5"/>
        </g>
        <g>
          <line class="cls-5" x1="230.12" y1="572.16" x2="230.12" y2="574.13"/>
          <rect class="cls-11" x="228.49" y="571.91" width="3.25" height=".5"/>
          <rect class="cls-11" x="228.49" y="573.88" width="3.25" height=".5"/>
        </g>
        <g>
          <line class="cls-5" x1="260.81" y1="560.16" x2="260.81" y2="565.41"/>
          <rect class="cls-11" x="259.19" y="559.91" width="3.25" height=".5"/>
          <rect class="cls-11" x="259.19" y="565.16" width="3.25" height=".5"/>
        </g>
        <g>
          <line class="cls-5" x1="255.4" y1="565.57" x2="255.4" y2="566.93"/>
          <rect class="cls-11" x="253.78" y="565.32" width="3.25" height=".5"/>
          <rect class="cls-11" x="253.78" y="566.68" width="3.25" height=".5"/>
        </g>
        <g>
          <line class="cls-5" x1="565.33" y1="513.08" x2="565.33" y2="517.31"/>
          <rect class="cls-11" x="563.71" y="512.83" width="3.25" height=".5"/>
          <rect class="cls-11" x="563.71" y="517.06" width="3.25" height=".5"/>
        </g>
        <g>
          <line class="cls-5" x1="559.92" y1="517.7" x2="559.92" y2="522.72"/>
          <rect class="cls-11" x="558.3" y="517.45" width="3.25" height=".5"/>
          <rect class="cls-11" x="558.3" y="522.47" width="3.25" height=".5"/>
        </g>
        <g>
          <line class="cls-5" x1="556.99" y1="523.27" x2="556.99" y2="525.82"/>
          <rect class="cls-11" x="555.37" y="523.02" width="3.25" height=".5"/>
          <rect class="cls-11" x="555.37" y="525.57" width="3.25" height=".5"/>
        </g>
        <g>
          <line class="cls-5" x1="548.43" y1="570.98" x2="548.43" y2="574.76"/>
          <rect class="cls-11" x="546.81" y="570.73" width="3.25" height=".5"/>
          <rect class="cls-11" x="546.81" y="574.51" width="3.25" height=".5"/>
        </g>
        <g>
          <line class="cls-5" x1="680.22" y1="358.33" x2="680.22" y2="361.42"/>
          <rect class="cls-11" x="678.6" y="358.08" width="3.25" height=".5"/>
          <rect class="cls-11" x="678.6" y="361.17" width="3.25" height=".5"/>
        </g>
        <g>
          <line class="cls-5" x1="658.6" y1="374.77" x2="658.6" y2="377.86"/>
          <rect class="cls-11" x="656.97" y="374.52" width="3.25" height=".5"/>
          <rect class="cls-11" x="656.97" y="377.61" width="3.25" height=".5"/>
        </g>
        <g>
          <line class="cls-5" x1="615.23" y1="489.65" x2="615.23" y2="494.11"/>
          <rect class="cls-11" x="613.6" y="489.4" width="3.25" height=".5"/>
          <rect class="cls-11" x="613.6" y="493.86" width="3.25" height=".5"/>
        </g>
        <g>
          <line class="cls-5" x1="609.6" y1="494.16" x2="609.6" y2="498.39"/>
          <rect class="cls-11" x="607.97" y="493.91" width="3.25" height=".5"/>
          <rect class="cls-11" x="607.97" y="498.14" width="3.25" height=".5"/>
        </g>
        <g>
          <line class="cls-5" x1="604.19" y1="498.78" x2="604.19" y2="503.79"/>
          <rect class="cls-11" x="602.57" y="498.53" width="3.25" height=".5"/>
          <rect class="cls-11" x="602.57" y="503.54" width="3.25" height=".5"/>
        </g>
        <g>
          <line class="cls-5" x1="530.41" y1="590.69" x2="530.41" y2="595.14"/>
          <rect class="cls-11" x="528.79" y="590.44" width="3.25" height=".5"/>
          <rect class="cls-11" x="528.79" y="594.89" width="3.25" height=".5"/>
        </g>
        <g>
          <line class="cls-5" x1="527.48" y1="595.19" x2="527.48" y2="599.42"/>
          <rect class="cls-11" x="525.86" y="594.94" width="3.25" height=".5"/>
          <rect class="cls-11" x="525.86" y="599.17" width="3.25" height=".5"/>
        </g>
        <g>
          <line class="cls-5" x1="522.08" y1="599.81" x2="522.08" y2="604.83"/>
          <rect class="cls-11" x="520.45" y="599.56" width="3.25" height=".5"/>
          <rect class="cls-11" x="520.45" y="604.58" width="3.25" height=".5"/>
        </g>
        <g>
          <line class="cls-5" x1="532.51" y1="584.38" x2="532.51" y2="588.84"/>
          <rect class="cls-11" x="530.89" y="584.13" width="3.25" height=".5"/>
          <rect class="cls-11" x="530.89" y="588.59" width="3.25" height=".5"/>
        </g>
        <g>
          <line class="cls-5" x1="650.22" y1="390.27" x2="650.22" y2="393.36"/>
          <rect class="cls-11" x="648.6" y="390.02" width="3.25" height=".5"/>
          <rect class="cls-11" x="648.6" y="393.11" width="3.25" height=".5"/>
        </g>
        <g>
          <line class="cls-5" x1="422.84" y1="594.09" x2="422.84" y2="596.95"/>
          <rect class="cls-11" x="421.22" y="593.84" width="3.25" height=".5"/>
          <rect class="cls-11" x="421.22" y="596.7" width="3.25" height=".5"/>
        </g>
        <g>
          <line class="cls-5" x1="419.2" y1="597.76" x2="419.2" y2="600.62"/>
          <rect class="cls-11" x="417.57" y="597.51" width="3.25" height=".5"/>
          <rect class="cls-11" x="417.57" y="600.37" width="3.25" height=".5"/>
        </g>
        <g>
          <line class="cls-5" x1="405.27" y1="633.39" x2="405.27" y2="636.25"/>
          <rect class="cls-11" x="403.64" y="633.14" width="3.25" height=".5"/>
          <rect class="cls-11" x="403.64" y="636" width="3.25" height=".5"/>
        </g>
        <g>
          <line class="cls-5" x1="415.56" y1="615.82" x2="415.56" y2="618.68"/>
          <rect class="cls-11" x="413.93" y="615.57" width="3.25" height=".5"/>
          <rect class="cls-11" x="413.93" y="618.43" width="3.25" height=".5"/>
        </g>
        <g>
          <line class="cls-9" x1="397.07" y1="238.25" x2="397.14" y2="252.34"/>
          <rect class="cls-15" x="395.44" y="238" width="3.25" height=".5" transform="translate(-1.23 2.06) rotate(-.3)"/>
          <rect class="cls-15" x="395.51" y="252.09" width="3.25" height=".5" transform="translate(-1.29 2.04) rotate(-.29)"/>
        </g>
        <g>
          <line class="cls-5" x1="325.44" y1="243.18" x2="325.44" y2="247.41"/>
          <rect class="cls-11" x="323.82" y="242.93" width="3.25" height=".5"/>
          <rect class="cls-11" x="323.82" y="247.16" width="3.25" height=".5"/>
        </g>
        <g>
          <line class="cls-9" x1="385.13" y1="239.69" x2="385.13" y2="250.9"/>
          <rect class="cls-15" x="383.5" y="239.44" width="3.25" height=".5"/>
          <rect class="cls-15" x="383.5" y="250.65" width="3.25" height=".5"/>
        </g>
        <g>
          <line class="cls-5" x1="361.25" y1="242.28" x2="361.25" y2="248.31"/>
          <rect class="cls-11" x="359.63" y="242.03" width="3.25" height=".5"/>
          <rect class="cls-11" x="359.63" y="248.06" width="3.25" height=".5"/>
        </g>
        <g>
          <line class="cls-5" x1="301.57" y1="243.38" x2="301.57" y2="247.21"/>
          <rect class="cls-11" x="299.94" y="243.13" width="3.25" height=".5"/>
          <rect class="cls-11" x="299.94" y="246.96" width="3.25" height=".5"/>
        </g>
        <g>
          <line class="cls-5" x1="170.18" y1="244.49" x2="170.2" y2="246.11"/>
          <rect class="cls-11" x="168.56" y="244.24" width="3.25" height=".5" transform="translate(-2.16 1.52) rotate(-.51)"/>
          <rect class="cls-11" x="168.57" y="245.86" width="3.25" height=".5" transform="translate(-2.17 1.52) rotate(-.51)"/>
        </g>
        <g>
          <line class="cls-5" x1="289.66" y1="243.61" x2="289.63" y2="246.98"/>
          <rect class="cls-11" x="289.41" y="241.98" width=".5" height="3.25" transform="translate(43.95 531.49) rotate(-89.58)"/>
          <rect class="cls-11" x="289.38" y="245.36" width=".5" height="3.25" transform="translate(40.55 534.82) rotate(-89.58)"/>
        </g>
        <g>
          <line class="cls-5" x1="265.76" y1="243.86" x2="265.76" y2="246.74"/>
          <rect class="cls-11" x="264.13" y="243.61" width="3.25" height=".5"/>
          <rect class="cls-11" x="264.13" y="246.49" width="3.25" height=".5"/>
        </g>
        <g>
          <line class="cls-5" x1="241.88" y1="245.04" x2="241.88" y2="245.55"/>
          <rect class="cls-11" x="240.26" y="244.79" width="3.25" height=".5"/>
          <rect class="cls-11" x="240.26" y="245.3" width="3.25" height=".5"/>
        </g>
        <g>
          <line class="cls-5" x1="229.95" y1="245.04" x2="229.95" y2="245.55"/>
          <rect class="cls-11" x="228.32" y="244.79" width="3.25" height=".5"/>
          <rect class="cls-11" x="228.32" y="245.3" width="3.25" height=".5"/>
        </g>
        <g>
          <line class="cls-5" x1="218.01" y1="245.04" x2="218.01" y2="245.55"/>
          <rect class="cls-11" x="216.39" y="244.79" width="3.25" height=".5"/>
          <rect class="cls-11" x="216.39" y="245.3" width="3.25" height=".5"/>
        </g>
        <g>
          <line class="cls-5" x1="194.14" y1="245.04" x2="194.14" y2="245.55"/>
          <rect class="cls-11" x="192.51" y="244.79" width="3.25" height=".5"/>
          <rect class="cls-11" x="192.51" y="245.3" width="3.25" height=".5"/>
        </g>
        <g>
          <line class="cls-5" x1="253.82" y1="244.16" x2="253.82" y2="246.43"/>
          <rect class="cls-11" x="252.2" y="243.91" width="3.25" height=".5"/>
          <rect class="cls-11" x="252.2" y="246.18" width="3.25" height=".5"/>
        </g>
        <g>
          <line class="cls-5" x1="373.19" y1="242.25" x2="373.19" y2="248.34"/>
          <rect class="cls-11" x="371.57" y="242" width="3.25" height=".5"/>
          <rect class="cls-11" x="371.57" y="248.09" width="3.25" height=".5"/>
        </g>
        <g>
          <line class="cls-5" x1="158.24" y1="244.61" x2="158.24" y2="245.98"/>
          <rect class="cls-11" x="156.62" y="244.36" width="3.25" height=".5"/>
          <rect class="cls-11" x="156.62" y="245.73" width="3.25" height=".5"/>
        </g>
        <g>
          <line class="cls-5" x1="313.51" y1="243.09" x2="313.51" y2="247.5"/>
          <rect class="cls-11" x="311.88" y="242.84" width="3.25" height=".5"/>
          <rect class="cls-11" x="311.88" y="247.25" width="3.25" height=".5"/>
        </g>
        <g>
          <line class="cls-5" x1="277.7" y1="243.71" x2="277.7" y2="246.88"/>
          <rect class="cls-11" x="276.07" y="243.46" width="3.25" height=".5"/>
          <rect class="cls-11" x="276.07" y="246.63" width="3.25" height=".5"/>
        </g>
        <g>
          <line class="cls-5" x1="337.38" y1="243.27" x2="337.38" y2="247.32"/>
          <rect class="cls-11" x="335.76" y="243.02" width="3.25" height=".5"/>
          <rect class="cls-11" x="335.76" y="247.07" width="3.25" height=".5"/>
        </g>
        <g>
          <line class="cls-5" x1="205.82" y1="244.31" x2="205.82" y2="246.28"/>
          <rect class="cls-11" x="204.2" y="244.06" width="3.25" height=".5"/>
          <rect class="cls-11" x="204.2" y="246.03" width="3.25" height=".5"/>
        </g>
        <g>
          <line class="cls-5" x1="349.32" y1="242.67" x2="349.32" y2="247.92"/>
          <rect class="cls-11" x="347.69" y="242.42" width="3.25" height=".5"/>
          <rect class="cls-11" x="347.69" y="247.67" width="3.25" height=".5"/>
        </g>
        <g>
          <line class="cls-5" x1="182.12" y1="244.62" x2="182.12" y2="245.98"/>
          <rect class="cls-11" x="180.49" y="244.37" width="3.25" height=".5"/>
          <rect class="cls-11" x="180.49" y="245.73" width="3.25" height=".5"/>
        </g>
        <g>
          <line class="cls-9" x1="819.67" y1="202.89" x2="819.26" y2="292.78"/>
          <rect class="cls-15" x="819.42" y="201.27" width=".5" height="3.25" transform="translate(613.08 1021.64) rotate(-89.74)"/>
          <rect class="cls-15" x="819.01" y="291.15" width=".5" height="3.25" transform="translate(522.69 1110.67) rotate(-89.73)"/>
        </g>
        <g>
          <line class="cls-9" x1="809.82" y1="226.01" x2="809.82" y2="269.66"/>
          <rect class="cls-15" x="808.19" y="225.76" width="3.25" height=".5"/>
          <rect class="cls-15" x="808.19" y="269.41" width="3.25" height=".5"/>
        </g>
        <g>
          <line class="cls-9" x1="799.49" y1="230.02" x2="799.96" y2="265.65"/>
          <rect class="cls-15" x="797.86" y="229.77" width="3.25" height=".5" transform="translate(-2.96 10.56) rotate(-.76)"/>
          <rect class="cls-15" x="798.33" y="265.4" width="3.25" height=".5" transform="translate(-3.43 10.57) rotate(-.76)"/>
        </g>
        <g>
          <line class="cls-5" x1="760.53" y1="243.87" x2="760.44" y2="251.8"/>
          <rect class="cls-11" x="760.28" y="242.24" width=".5" height="3.25" transform="translate(507.58 1001.43) rotate(-89.31)"/>
          <rect class="cls-11" x="760.19" y="250.18" width=".5" height="3.25" transform="translate(499.55 1009.17) rotate(-89.31)"/>
        </g>
        <g>
          <line class="cls-9" x1="790.1" y1="237.72" x2="790.1" y2="257.95"/>
          <rect class="cls-15" x="788.48" y="237.47" width="3.25" height=".5"/>
          <rect class="cls-15" x="788.48" y="257.7" width="3.25" height=".5"/>
        </g>
        <g>
          <line class="cls-5" x1="721.11" y1="245.61" x2="721.11" y2="250.06"/>
          <rect class="cls-11" x="719.48" y="245.36" width="3.25" height=".5"/>
          <rect class="cls-11" x="719.48" y="249.81" width="3.25" height=".5"/>
        </g>
        <g>
          <line class="cls-5" x1="770.17" y1="242.23" x2="770.39" y2="253.44"/>
          <rect class="cls-11" x="768.55" y="241.98" width="3.25" height=".5" transform="translate(-4.53 14.9) rotate(-1.11)"/>
          <rect class="cls-11" x="768.76" y="253.19" width="3.25" height=".5" transform="translate(-4.72 14.81) rotate(-1.1)"/>
        </g>
        <g>
          <line class="cls-5" x1="780.25" y1="242.01" x2="780.25" y2="253.66"/>
          <rect class="cls-11" x="778.62" y="241.76" width="3.25" height=".5"/>
          <rect class="cls-11" x="778.62" y="253.41" width="3.25" height=".5"/>
        </g>
        <g>
          <line class="cls-5" x1="711.25" y1="245.72" x2="711.25" y2="249.95"/>
          <rect class="cls-11" x="709.62" y="245.47" width="3.25" height=".5"/>
          <rect class="cls-11" x="709.62" y="249.7" width="3.25" height=".5"/>
        </g>
        <g>
          <line class="cls-5" x1="701.39" y1="245.33" x2="701.39" y2="250.35"/>
          <rect class="cls-11" x="699.77" y="245.08" width="3.25" height=".5"/>
          <rect class="cls-11" x="699.77" y="250.1" width="3.25" height=".5"/>
        </g>
        <g>
          <line class="cls-5" x1="612.68" y1="246.57" x2="612.68" y2="249.11"/>
          <rect class="cls-11" x="611.06" y="246.32" width="3.25" height=".5"/>
          <rect class="cls-11" x="611.06" y="248.86" width="3.25" height=".5"/>
        </g>
        <g>
          <line class="cls-5" x1="652.11" y1="245.95" x2="652.11" y2="249.73"/>
          <rect class="cls-11" x="650.48" y="245.7" width="3.25" height=".5"/>
          <rect class="cls-11" x="650.48" y="249.48" width="3.25" height=".5"/>
        </g>
        <g>
          <line class="cls-5" x1="642.25" y1="246.29" x2="642.25" y2="249.38"/>
          <rect class="cls-11" x="640.63" y="246.04" width="3.25" height=".5"/>
          <rect class="cls-11" x="640.63" y="249.13" width="3.25" height=".5"/>
        </g>
        <g>
          <line class="cls-5" x1="622.54" y1="246.29" x2="622.54" y2="249.38"/>
          <rect class="cls-11" x="620.91" y="246.04" width="3.25" height=".5"/>
          <rect class="cls-11" x="620.91" y="249.13" width="3.25" height=".5"/>
        </g>
        <g>
          <line class="cls-5" x1="750.68" y1="245.61" x2="750.68" y2="250.06"/>
          <rect class="cls-11" x="749.05" y="245.36" width="3.25" height=".5"/>
          <rect class="cls-11" x="749.05" y="249.81" width="3.25" height=".5"/>
        </g>
        <g>
          <line class="cls-5" x1="740.82" y1="245.72" x2="740.82" y2="249.95"/>
          <rect class="cls-11" x="739.2" y="245.47" width="3.25" height=".5"/>
          <rect class="cls-11" x="739.2" y="249.7" width="3.25" height=".5"/>
        </g>
        <g>
          <line class="cls-5" x1="730.96" y1="245.33" x2="730.96" y2="250.35"/>
          <rect class="cls-11" x="729.34" y="245.08" width="3.25" height=".5"/>
          <rect class="cls-11" x="729.34" y="250.1" width="3.25" height=".5"/>
        </g>
        <g>
          <line class="cls-5" x1="681.68" y1="245.61" x2="681.68" y2="250.06"/>
          <rect class="cls-11" x="680.05" y="245.36" width="3.25" height=".5"/>
          <rect class="cls-11" x="680.05" y="249.81" width="3.25" height=".5"/>
        </g>
        <g>
          <line class="cls-5" x1="671.82" y1="245.72" x2="671.82" y2="249.95"/>
          <rect class="cls-11" x="670.2" y="245.47" width="3.25" height=".5"/>
          <rect class="cls-11" x="670.2" y="249.7" width="3.25" height=".5"/>
        </g>
        <g>
          <line class="cls-5" x1="661.97" y1="245.33" x2="661.97" y2="250.35"/>
          <rect class="cls-11" x="660.34" y="245.08" width="3.25" height=".5"/>
          <rect class="cls-11" x="660.34" y="250.1" width="3.25" height=".5"/>
        </g>
        <g>
          <line class="cls-5" x1="691.54" y1="245.61" x2="691.54" y2="250.06"/>
          <rect class="cls-11" x="689.91" y="245.36" width="3.25" height=".5"/>
          <rect class="cls-11" x="689.91" y="249.81" width="3.25" height=".5"/>
        </g>
        <g>
          <line class="cls-5" x1="632.4" y1="246.29" x2="632.4" y2="249.38"/>
          <rect class="cls-11" x="630.77" y="246.04" width="3.25" height=".5"/>
          <rect class="cls-11" x="630.77" y="249.13" width="3.25" height=".5"/>
        </g>
        <g>
          <line class="cls-5" x1="481.13" y1="245.56" x2="481.13" y2="248.42"/>
          <rect class="cls-11" x="479.5" y="245.31" width="3.25" height=".5"/>
          <rect class="cls-11" x="479.5" y="248.17" width="3.25" height=".5"/>
        </g>
        <g>
          <line class="cls-9" x1="552.95" y1="239.72" x2="552.95" y2="254.26"/>
          <rect class="cls-15" x="551.32" y="239.47" width="3.25" height=".5"/>
          <rect class="cls-15" x="551.32" y="254.01" width="3.25" height=".5"/>
        </g>
        <g>
          <line class="cls-9" x1="540.98" y1="239.83" x2="540.98" y2="254.16"/>
          <rect class="cls-15" x="539.35" y="239.58" width="3.25" height=".5"/>
          <rect class="cls-15" x="539.35" y="253.91" width="3.25" height=".5"/>
        </g>
        <g>
          <line class="cls-9" x1="529.01" y1="240.06" x2="529.01" y2="253.92"/>
          <rect class="cls-15" x="527.38" y="239.81" width="3.25" height=".5"/>
          <rect class="cls-15" x="527.38" y="253.67" width="3.25" height=".5"/>
        </g>
        <g>
          <line class="cls-5" x1="505.07" y1="245.56" x2="505.07" y2="248.42"/>
          <rect class="cls-11" x="503.44" y="245.31" width="3.25" height=".5"/>
          <rect class="cls-11" x="503.44" y="248.17" width="3.25" height=".5"/>
        </g>
        <g>
          <line class="cls-5" x1="493.1" y1="245.56" x2="493.1" y2="248.42"/>
          <rect class="cls-11" x="491.47" y="245.31" width="3.25" height=".5"/>
          <rect class="cls-11" x="491.47" y="248.17" width="3.25" height=".5"/>
        </g>
        <g>
          <line class="cls-5" x1="517.04" y1="245.56" x2="517.04" y2="248.42"/>
          <rect class="cls-11" x="515.41" y="245.31" width="3.25" height=".5"/>
          <rect class="cls-11" x="515.41" y="248.17" width="3.25" height=".5"/>
        </g>
        <g>
          <line class="cls-5" x1="469.16" y1="245.56" x2="469.16" y2="248.42"/>
          <rect class="cls-11" x="467.53" y="245.31" width="3.25" height=".5"/>
          <rect class="cls-11" x="467.53" y="248.17" width="3.25" height=".5"/>
        </g>
        <line class="cls-4" x1="494.25" y1="657.12" x2="605.99" y2="261.53"/>
        <g>
          <line class="cls-6" x1="867.32" y1="649.91" x2="867.04" y2="646.92"/>
          <line class="cls-2" x1="866.49" y1="640.88" x2="832.72" y2="269.34"/>
          <line class="cls-6" x1="832.44" y1="266.32" x2="832.17" y2="263.33"/>
        </g>
        <line class="cls-4" x1="398.74" y1="659.82" x2="461.81" y2="250.72"/>
        <line class="cls-4" x1="439.29" y1="658.92" x2="559.13" y2="256.13"/>
        <line class="cls-4" x1="139.22" y1="658.02" x2="153.63" y2="252.52"/>
        <line class="cls-4" x1="369.9" y1="658.92" x2="406.85" y2="247.11"/>
      </g>
    </g>
  </g>
</svg>