<?xml version="1.0" encoding="UTF-8"?>
<svg xmlns="http://www.w3.org/2000/svg" version="1.1" xmlns:xlink="http://www.w3.org/1999/xlink" viewBox="0 0 1024 768">
  <defs>
    <style>
      .cls-1 {
        stroke: url(#Unbenannter_Verlauf_24);
      }

      .cls-1, .cls-2, .cls-3, .cls-4, .cls-5, .cls-6, .cls-7, .cls-8, .cls-9, .cls-10, .cls-11, .cls-12, .cls-13, .cls-14, .cls-15, .cls-16, .cls-17, .cls-18, .cls-19 {
        stroke-linecap: round;
        stroke-miterlimit: 10;
        stroke-width: 3px;
      }

      .cls-1, .cls-2, .cls-7, .cls-12, .cls-15 {
        fill: #7e7ebb;
      }

      .cls-20, .cls-21, .cls-22, .cls-23, .cls-24, .cls-25 {
        font-family: MyriadPro-Regular, 'Myriad Pro';
      }

      .cls-20, .cls-23 {
        font-size: 12.85px;
      }

      .cls-20, .cls-24 {
        fill: #566876;
      }

      .cls-2 {
        stroke: url(#Unbenannter_Verlauf_10-8);
      }

      .cls-3 {
        stroke: url(#Unbenannter_Verlauf_10-5);
      }

      .cls-3, .cls-4, .cls-6, .cls-26, .cls-8, .cls-9, .cls-10, .cls-11, .cls-13, .cls-14, .cls-16, .cls-17, .cls-18, .cls-19 {
        fill: none;
      }

      .cls-4 {
        stroke: url(#Unbenannter_Verlauf_10-3);
      }

      .cls-5 {
        fill: url(#Unbenannter_Verlauf_24-4);
        stroke: url(#Unbenannter_Verlauf_24-5);
      }

      .cls-21 {
        fill: #544841;
      }

      .cls-21, .cls-22, .cls-24 {
        font-size: 16.52px;
      }

      .cls-22, .cls-25 {
        fill: #b4898f;
      }

      .cls-6 {
        stroke: url(#Unbenannter_Verlauf_10-4);
      }

      .cls-7 {
        stroke: url(#Unbenannter_Verlauf_284);
      }

      .cls-8 {
        stroke: url(#Unbenannter_Verlauf_10-9);
      }

      .cls-9 {
        stroke: url(#Unbenannter_Verlauf_32);
      }

      .cls-23 {
        fill: #2f4323;
      }

      .cls-10 {
        stroke: url(#Unbenannter_Verlauf_66);
      }

      .cls-11 {
        stroke: url(#Unbenannter_Verlauf_10-2);
      }

      .cls-12 {
        stroke: url(#Unbenannter_Verlauf_24-3);
      }

      .cls-13 {
        stroke: url(#Unbenannter_Verlauf_10-6);
      }

      .cls-14 {
        stroke: url(#Unbenannter_Verlauf_66-2);
      }

      .cls-25 {
        font-size: 11.01px;
      }

      .cls-15 {
        stroke: url(#Unbenannter_Verlauf_24-6);
      }

      .cls-16 {
        stroke: url(#Unbenannter_Verlauf_10-7);
      }

      .cls-17 {
        stroke: url(#Unbenannter_Verlauf_141);
      }

      .cls-18 {
        stroke: url(#Unbenannter_Verlauf_24-2);
      }

      .cls-19 {
        stroke: url(#Unbenannter_Verlauf_10);
      }
    </style>
    <linearGradient id="Unbenannter_Verlauf_32" data-name="Unbenannter Verlauf 32" x1="786.39" y1="549.18" x2="905.38" y2="549.18" gradientUnits="userSpaceOnUse">
      <stop offset="0" stop-color="#fff"/>
      <stop offset="0" stop-color="#7d7f98"/>
      <stop offset=".6" stop-color="#bd8a8d"/>
      <stop offset="1" stop-color="#eb9386"/>
    </linearGradient>
    <linearGradient id="Unbenannter_Verlauf_10" data-name="Unbenannter Verlauf 10" x1="786.23" y1="483.41" x2="905.23" y2="483.41" gradientUnits="userSpaceOnUse">
      <stop offset="0" stop-color="#fff"/>
      <stop offset="0" stop-color="#eb9386"/>
      <stop offset=".6" stop-color="#aa8790"/>
      <stop offset="1" stop-color="#7d7f98"/>
    </linearGradient>
    <linearGradient id="Unbenannter_Verlauf_10-2" data-name="Unbenannter Verlauf 10" x1="785.47" y1="335.61" x2="904.46" y2="335.61" xlink:href="#Unbenannter_Verlauf_10"/>
    <linearGradient id="Unbenannter_Verlauf_24" data-name="Unbenannter Verlauf 24" x1="178.26" y1="382.56" x2="258.22" y2="382.56" gradientUnits="userSpaceOnUse">
      <stop offset="0" stop-color="#fff"/>
      <stop offset="0" stop-color="#7d7f98"/>
      <stop offset=".6" stop-color="#bd8a8d"/>
      <stop offset="1" stop-color="#eb9386"/>
    </linearGradient>
    <linearGradient id="Unbenannter_Verlauf_10-3" data-name="Unbenannter Verlauf 10" x1="298.74" y1="382.56" x2="382.21" y2="382.56" xlink:href="#Unbenannter_Verlauf_10"/>
    <linearGradient id="Unbenannter_Verlauf_66" data-name="Unbenannter Verlauf 66" x1="265.33" y1="349.03" x2="350.05" y2="349.03" gradientUnits="userSpaceOnUse">
      <stop offset="0" stop-color="#ec9587"/>
      <stop offset=".68" stop-color="#eb9386"/>
      <stop offset=".87" stop-color="#aa8790"/>
      <stop offset="1" stop-color="#7d7f98"/>
    </linearGradient>
    <linearGradient id="Unbenannter_Verlauf_24-2" data-name="Unbenannter Verlauf 24" x1="552.79" y1="382.69" x2="632.75" y2="382.69" xlink:href="#Unbenannter_Verlauf_24"/>
    <linearGradient id="Unbenannter_Verlauf_284" data-name="Unbenannter Verlauf 284" x1="786.94" y1="623.35" x2="786.94" y2="243.06" gradientTransform="translate(-.37 -.61) rotate(-.07)" gradientUnits="userSpaceOnUse">
      <stop offset="0" stop-color="#fff"/>
      <stop offset="0" stop-color="#7d7f98"/>
      <stop offset=".25" stop-color="#bd8a8d"/>
      <stop offset=".42" stop-color="#eb9386"/>
      <stop offset=".8" stop-color="#a7919b"/>
      <stop offset="1" stop-color="#8991a5"/>
    </linearGradient>
    <linearGradient id="Unbenannter_Verlauf_10-4" data-name="Unbenannter Verlauf 10" x1="680.14" y1="382.66" x2="749.19" y2="382.66" xlink:href="#Unbenannter_Verlauf_10"/>
    <linearGradient id="Unbenannter_Verlauf_24-3" data-name="Unbenannter Verlauf 24" x1="785.21" y1="244.47" x2="900.26" y2="244.47" xlink:href="#Unbenannter_Verlauf_24"/>
    <linearGradient id="Unbenannter_Verlauf_141" data-name="Unbenannter Verlauf 141" x1="901.91" y1="335.99" x2="904.91" y2="335.99" gradientUnits="userSpaceOnUse">
      <stop offset="0" stop-color="#fff"/>
      <stop offset="0" stop-color="#7d7f98"/>
      <stop offset=".11" stop-color="#bdbeca"/>
      <stop offset=".21" stop-color="#f8f8f8"/>
      <stop offset=".21" stop-color="#f6f6f7"/>
      <stop offset=".39" stop-color="#cbccd5"/>
      <stop offset=".56" stop-color="#a9aaba"/>
      <stop offset=".73" stop-color="#9092a7"/>
      <stop offset=".88" stop-color="#82849b"/>
      <stop offset="1" stop-color="#7d7f98"/>
    </linearGradient>
    <linearGradient id="Unbenannter_Verlauf_10-5" data-name="Unbenannter Verlauf 10" x1="903.41" y1="292.96" x2="983.4" y2="292.96" xlink:href="#Unbenannter_Verlauf_10"/>
    <linearGradient id="Unbenannter_Verlauf_24-4" data-name="Unbenannter Verlauf 24" x1="902.31" y1="378.86" x2="982.3" y2="378.86" xlink:href="#Unbenannter_Verlauf_24"/>
    <linearGradient id="Unbenannter_Verlauf_24-5" data-name="Unbenannter Verlauf 24" x1="902.31" y1="378.86" x2="982.3" y2="378.86" xlink:href="#Unbenannter_Verlauf_24"/>
    <linearGradient id="Unbenannter_Verlauf_10-6" data-name="Unbenannter Verlauf 10" x1="750.55" y1="213.57" x2="816.09" y2="213.57" xlink:href="#Unbenannter_Verlauf_10"/>
    <linearGradient id="Unbenannter_Verlauf_10-7" data-name="Unbenannter Verlauf 10" x1="785.53" y1="425.83" x2="904.52" y2="425.83" xlink:href="#Unbenannter_Verlauf_10"/>
    <linearGradient id="Unbenannter_Verlauf_24-6" data-name="Unbenannter Verlauf 24" x1="785.37" y1="623.56" x2="902.48" y2="623.56" xlink:href="#Unbenannter_Verlauf_24"/>
    <linearGradient id="Unbenannter_Verlauf_10-8" data-name="Unbenannter Verlauf 10" x1="59.68" y1="382.56" x2="130.66" y2="382.56" xlink:href="#Unbenannter_Verlauf_10"/>
    <linearGradient id="Unbenannter_Verlauf_10-9" data-name="Unbenannter Verlauf 10" x1="422.59" y1="382.26" x2="504.53" y2="382.26" xlink:href="#Unbenannter_Verlauf_10"/>
    <linearGradient id="Unbenannter_Verlauf_66-2" data-name="Unbenannter Verlauf 66" x1="395.61" y1="348.57" x2="480.33" y2="348.57" xlink:href="#Unbenannter_Verlauf_66"/>
  </defs>
  <!-- Generator: Adobe Illustrator 28.7.1, SVG Export Plug-In . SVG Version: 1.2.0 Build 142)  -->
  <g>
    <g id="Ebene_1">
      <line class="cls-9" x1="787.89" y1="549.18" x2="903.88" y2="549.18"/>
      <line class="cls-19" x1="787.73" y1="483.41" x2="903.73" y2="483.41"/>
      <line class="cls-11" x1="786.97" y1="335.61" x2="902.96" y2="335.61"/>
      <text class="cls-21" transform="translate(134.71 387.76)"><tspan x="0" y="0">pod5</tspan></text>
      <line class="cls-1" x1="179.76" y1="382.56" x2="256.72" y2="382.56"/>
      <text class="cls-24" transform="translate(56.09 362.43)"><tspan x="0" y="0">Sequencing</tspan></text>
      <text class="cls-21" transform="translate(12.38 370.88)"><tspan x="0" y="0">cDNA</tspan><tspan x="12.45" y="19.82">or </tspan><tspan x="4.76" y="39.64">RNA</tspan></text>
      <text class="cls-22" transform="translate(60.24 413.09)"><tspan x="0" y="0">MinKnow</tspan></text>
      <text class="cls-24" transform="translate(178.86 345.03)"><tspan x="0" y="0">Basecalling</tspan><tspan x="4.93" y="19.82">Trimming</tspan></text>
      <text class="cls-22" transform="translate(184.89 413.01)"><tspan x="0" y="0">dorado</tspan></text>
      <text class="cls-21" transform="translate(262.15 386.31)"><tspan x="0" y="0">fastq</tspan></text>
      <text class="cls-22" transform="translate(178.63 428.83)"><tspan x="0" y="0">porechop</tspan></text>
      <text class="cls-24" transform="translate(302.32 361.04)"><tspan x="0" y="0">Alignment</tspan></text>
      <text class="cls-22" transform="translate(304.58 411.48)"><tspan x="0" y="0">minimap2</tspan></text>
      <line class="cls-4" x1="300.24" y1="382.56" x2="380.71" y2="382.56"/>
      <path class="cls-10" d="M266.83,315.45c.49,6.75,2.62,20.48,13.62,34.46,2.39,3.03,9.42,11.46,22.14,18.99,18.03,10.68,36.51,13.08,45.97,13.72"/>
      <text class="cls-23" transform="translate(230.47 308.63)"><tspan x="0" y="0">45SN1 hg38</tspan></text>
      <text class="cls-21" transform="translate(387.78 385.95)"><tspan x="0" y="0">bam</tspan></text>
      <line class="cls-18" x1="554.29" y1="382.69" x2="631.25" y2="382.69"/>
      <text class="cls-20" transform="translate(560.87 326.28)"><tspan x="0" y="0">Basecalling</tspan><tspan x="-15.95" y="15.41">PolyA-estimation</tspan><tspan x="-3.87" y="30.83">Modification </tspan><tspan x="4.22" y="46.24">detection</tspan></text>
      <text class="cls-22" transform="translate(563.02 413.01)"><tspan x="0" y="0">dorado</tspan></text>
      <text class="cls-24" transform="translate(678.17 349.66)"><tspan x="0" y="0">Alignment</tspan></text>
      <text class="cls-21" transform="translate(636.96 385.78)"><tspan x="0" y="0">ubam</tspan></text>
      <text class="cls-22" transform="translate(683.53 401.26)"><tspan x="0" y="0">samtools</tspan><tspan x="-3.98" y="19.82">minimap2</tspan></text>
      <text class="cls-21" transform="translate(753.6 385.08)"><tspan x="0" y="0">bam</tspan></text>
      <path class="cls-7" d="M787.29,624.71l-.38-382.08.38,382.08Z"/>
      <line class="cls-6" x1="747.69" y1="382.94" x2="681.64" y2="382.38"/>
      <line class="cls-12" x1="786.71" y1="244.47" x2="898.76" y2="244.47"/>
      <text class="cls-20" transform="translate(788.7 219.76)"><tspan x="0" y="0">Template based read </tspan><tspan x="26.37" y="15.41">association</tspan></text>
      <text class="cls-25" transform="translate(821.79 257.58)"><tspan x="0" y="0">argmax of </tspan><tspan x="-17.75" y="13.21">minimum overlap </tspan><tspan x="12.16" y="26.43">pairs</tspan></text>
      <text class="cls-25" transform="translate(807.55 349.22)"><tspan x="0" y="0">intensity matrix</tspan></text>
      <text class="cls-20" transform="translate(793.06 309.11)"><tspan x="0" y="0" xml:space="preserve"> Template free read </tspan><tspan x="25.33" y="15.41">clustering</tspan></text>
      <line class="cls-17" x1="903.41" y1="293.25" x2="903.41" y2="378.73"/>
      <path class="cls-3" d="M983.4,292.96h-80,80Z"/>
      <path class="cls-5" d="M982.3,378.86h-79.99s79.99,0,79.99,0Z"/>
      <text class="cls-25" transform="translate(897.21 274.87)"><tspan x="0" y="0">Clustering reads sharing </tspan><tspan x="-1.3" y="13.21">start + end sharing reads</tspan></text>
      <text class="cls-25" transform="translate(895.22 392.28)"><tspan x="0" y="0">HDBSCAN clustering</tspan></text>
      <path class="cls-13" d="M752.05,182.43c.38,4.7,2,29.79,10.43,39.52,1.83,2.11,7.21,7.97,16.94,13.21,13.79,7.43,27.94,9.1,35.18,9.55"/>
      <text class="cls-23" transform="translate(736.5 158.17)"><tspan x="0" y="0">rRNA </tspan><tspan x="-23.48" y="15.41">intermediates</tspan></text>
      <text class="cls-21" transform="translate(907.08 248.29)"><tspan x="0" y="0">csv</tspan></text>
      <text class="cls-21" transform="translate(986.96 297.56)"><tspan x="0" y="0">csv</tspan></text>
      <text class="cls-21" transform="translate(986.63 383.81)"><tspan x="0" y="0">csv</tspan></text>
      <line class="cls-16" x1="787.03" y1="425.83" x2="903.02" y2="425.83"/>
      <line class="cls-15" x1="786.87" y1="623.56" x2="900.98" y2="623.56"/>
      <text class="cls-20" transform="translate(813.02 401.72)"><tspan x="0" y="0">Determine </tspan><tspan x="-19.19" y="15.42">modification ratio</tspan></text>
      <text class="cls-25" transform="translate(827.3 438.02)"><tspan x="0" y="0">pysam</tspan></text>
      <text class="cls-25" transform="translate(807.7 639.57)"><tspan x="0" y="0">polyA detection </tspan></text>
      <text class="cls-20" transform="translate(791.82 613.08)"><tspan x="0" y="0">Extract 3‘end motifs</tspan></text>
      <text class="cls-25" transform="translate(826.62 563.37)"><tspan x="0" y="0">pysam</tspan></text>
      <text class="cls-20" transform="translate(792.41 536.87)"><tspan x="0" y="0">Determine cut sites</tspan></text>
      <text/>
      <line class="cls-26" x1="905.77" y1="492.1" x2="785.98" y2="492.1"/>
      <text class="cls-20" transform="translate(792.9 477.47)"><tspan x="0" y="0">Extract taillengths</tspan></text>
      <text class="cls-25" transform="translate(828.3 497.59)"><tspan x="0" y="0">pysam</tspan></text>
      <text class="cls-21" transform="translate(907.28 429.78)"><tspan x="0" y="0">csv</tspan></text>
      <text class="cls-21" transform="translate(907.08 486.78)"><tspan x="0" y="0">csv</tspan></text>
      <text class="cls-21" transform="translate(907.08 552.57)"><tspan x="0" y="0">csv</tspan></text>
      <text class="cls-21" transform="translate(905.64 628.73)"><tspan x="0" y="0">csv</tspan></text>
      <line class="cls-2" x1="61.18" y1="382.56" x2="129.16" y2="382.56"/>
      <line class="cls-8" x1="424.09" y1="382.26" x2="503.03" y2="382.26"/>
      <text class="cls-24" transform="translate(434.07 365.94)"><tspan x="0" y="0">Filtering</tspan></text>
      <text class="cls-21" transform="translate(508.22 385.62)"><tspan x="0" y="0">pod5</tspan></text>
      <text class="cls-22" transform="translate(434.85 410.23)"><tspan x="0" y="0">pod5-api</tspan></text>
      <path class="cls-14" d="M397.11,314.99c.49,6.75,2.62,20.48,13.62,34.46,2.39,3.03,9.42,11.46,22.14,18.99,18.03,10.68,36.51,13.08,45.97,13.72"/>
      <rect class="cls-26" x="516.91" y="374.16" width="43.04" height="22.16"/>
      <text class="cls-21" transform="translate(373.18 309.07)"><tspan x="0" y="0">pod5</tspan></text>
    </g>
  </g>
</svg>