<?xml version="1.0" encoding="UTF-8"?>
<svg xmlns="http://www.w3.org/2000/svg" version="1.1" viewBox="0 0 1024 768">
  <defs>
    <style>
      .cls-1 {
        stroke-dasharray: 6.3 6.3;
      }

      .cls-1, .cls-2, .cls-3, .cls-4, .cls-5, .cls-6 {
        fill: none;
      }

      .cls-1, .cls-2, .cls-4, .cls-5 {
        stroke: #efb987;
        stroke-width: 2px;
      }

      .cls-1, .cls-2, .cls-4, .cls-5, .cls-6 {
        stroke-miterlimit: 10;
      }

      .cls-7 {
        font-size: 20.06px;
      }

      .cls-7, .cls-8, .cls-9, .cls-10, .cls-11 {
        font-family: MyriadPro-Regular, 'Myriad Pro';
      }

      .cls-7, .cls-10 {
        fill: #1d1d1b;
      }

      .cls-8 {
        font-size: 22.39px;
      }

      .cls-8, .cls-9, .cls-11 {
        fill: #566876;
      }

      .cls-9, .cls-10 {
        font-size: 20.15px;
      }

      .cls-2 {
        stroke-dasharray: 5.75 5.75;
      }

      .cls-12 {
        fill: #b58a8f;
      }

      .cls-4 {
        stroke-dasharray: 5.91 5.91;
      }

      .cls-13 {
        fill: #8a92a6;
      }

      .cls-6 {
        stroke: #9c9b9b;
        stroke-width: .5px;
      }

      .cls-14 {
        fill: #063;
        opacity: .56;
      }

      .cls-11 {
        font-size: 16.38px;
      }
    </style>
  </defs>
  <!-- Generator: Adobe Illustrator 28.7.1, SVG Export Plug-In . SVG Version: 1.2.0 Build 142)  -->
  <g>
    <g id="Ebene_1">
      <rect class="cls-14" x="223.98" y="296.93" width="673.57" height="21.26"/>
      <text class="cls-7" transform="translate(438.14 507.74) scale(.89 1)"><tspan x="0" y="0" xml:space="preserve"> Query overlapping Fragment (Q</tspan></text>
      <text class="cls-7" transform="translate(679.67 514.42) scale(.52 .58)"><tspan x="0" y="0">n</tspan></text>
      <text class="cls-7" transform="translate(685.46 507.74) scale(.89 1)"><tspan x="0" y="0">)</tspan></text>
      <text class="cls-7" transform="translate(398.24 179.78) scale(.89 1)"><tspan x="0" y="0">Fragment overlapping query (F</tspan></text>
      <text class="cls-7" transform="translate(630.12 186.46) scale(.52 .58)"><tspan x="0" y="0">i</tspan></text>
      <text class="cls-7" transform="translate(632.56 179.78) scale(.89 1)"><tspan x="0" y="0">)</tspan></text>
      <rect class="cls-13" x="225.71" y="254.13" width="172.53" height="21.26"/>
      <rect class="cls-13" x="486.29" y="254.13" width="29.21" height="21.26"/>
      <rect class="cls-13" x="597.74" y="254.13" width="298.24" height="21.26"/>
      <rect class="cls-12" x="320.4" y="335.53" width="549.91" height="21.26"/>
      <line class="cls-3" x1="398.24" y1="254.13" x2="398.24" y2="357.84"/>
      <g>
        <line class="cls-5" x1="320.4" y1="257.28" x2="320.4" y2="260.28"/>
        <line class="cls-4" x1="320.4" y1="266.19" x2="320.4" y2="416.99"/>
        <line class="cls-5" x1="320.4" y1="419.94" x2="320.4" y2="422.94"/>
      </g>
      <g>
        <line class="cls-5" x1="398.24" y1="254.13" x2="398.24" y2="257.13"/>
        <line class="cls-2" x1="398.24" y1="262.87" x2="398.24" y2="351.96"/>
        <line class="cls-5" x1="398.24" y1="354.84" x2="398.24" y2="357.84"/>
      </g>
      <g>
        <line class="cls-5" x1="515.5" y1="254.13" x2="515.5" y2="257.13"/>
        <line class="cls-2" x1="515.5" y1="262.87" x2="515.5" y2="351.96"/>
        <line class="cls-5" x1="515.5" y1="354.84" x2="515.5" y2="357.84"/>
      </g>
      <g>
        <line class="cls-5" x1="486.29" y1="254.13" x2="486.29" y2="257.13"/>
        <line class="cls-2" x1="486.29" y1="262.87" x2="486.29" y2="351.96"/>
        <line class="cls-5" x1="486.29" y1="354.84" x2="486.29" y2="357.84"/>
      </g>
      <g>
        <line class="cls-5" x1="597.74" y1="254.13" x2="597.74" y2="257.13"/>
        <line class="cls-2" x1="597.74" y1="262.87" x2="597.74" y2="351.96"/>
        <line class="cls-5" x1="597.74" y1="354.84" x2="597.74" y2="357.84"/>
      </g>
      <g>
        <line class="cls-5" x1="870.31" y1="257.28" x2="870.31" y2="260.28"/>
        <line class="cls-4" x1="870.31" y1="266.19" x2="870.31" y2="416.99"/>
        <line class="cls-5" x1="870.31" y1="419.94" x2="870.31" y2="422.94"/>
      </g>
      <g>
        <line class="cls-5" x1="225.71" y1="254.13" x2="225.71" y2="257.13"/>
        <line class="cls-2" x1="225.71" y1="262.87" x2="225.71" y2="351.96"/>
        <line class="cls-5" x1="225.71" y1="354.84" x2="225.71" y2="357.84"/>
      </g>
      <text class="cls-10" transform="translate(126.21 365.43) scale(.89 1)"><tspan x="0" y="0">Query</tspan></text>
      <text class="cls-10" transform="translate(116.39 277.92) scale(.89 1)"><tspan x="0" y="0">Fragments</tspan></text>
      <text class="cls-9" transform="translate(344.88 375.33) scale(.89 1)"><tspan x="0" y="0">19%</tspan></text>
      <text class="cls-9" transform="translate(491.43 376.92) scale(.89 1)"><tspan x="0" y="0">8%</tspan></text>
      <text class="cls-8" transform="translate(739.85 375.96) scale(.89 1)"><tspan x="0" y="0">54%</tspan></text>
      <text class="cls-8" transform="translate(742.77 240.26) scale(.89 1)"><tspan x="0" y="0">90%</tspan></text>
      <text class="cls-8" transform="translate(479.38 243.05) scale(.89 1)"><tspan x="0" y="0">100%</tspan></text>
      <text class="cls-8" transform="translate(339.8 243.77) scale(.89 1)"><tspan x="0" y="0">66%</tspan></text>
      <text class="cls-8" transform="translate(332.25 214.96) scale(.89 1)"><tspan x="0" y="0">F</tspan></text>
      <text class="cls-8" transform="translate(341.98 222.42) scale(.52 .58)"><tspan x="0" y="0">1</tspan></text>
      <text class="cls-8" transform="translate(347.95 214.96) scale(.89 1)"><tspan x="0" y="0" xml:space="preserve"> = 18S </tspan></text>
      <text class="cls-8" transform="translate(465.73 214.13) scale(.89 1)"><tspan x="0" y="0">F</tspan></text>
      <text class="cls-8" transform="translate(475.45 221.59) scale(.52 .58)"><tspan x="0" y="0">2</tspan></text>
      <text class="cls-8" transform="translate(481.42 214.13) scale(.89 1)"><tspan x="0" y="0" xml:space="preserve"> = 5.8S </tspan></text>
      <text class="cls-8" transform="translate(727.52 212.51) scale(.89 1)"><tspan x="0" y="0">F</tspan></text>
      <text class="cls-8" transform="translate(737.25 219.97) scale(.52 .58)"><tspan x="0" y="0">3</tspan></text>
      <text class="cls-8" transform="translate(743.22 212.51) scale(.89 1)"><tspan x="0" y="0" xml:space="preserve"> = 28S </tspan></text>
      <text class="cls-8" transform="translate(349.58 401.14) scale(.89 1)"><tspan x="0" y="0">Q</tspan></text>
      <text class="cls-8" transform="translate(363.34 408.6) scale(.52 .58)"><tspan x="0" y="0">nF1</tspan></text>
      <text class="cls-8" transform="translate(490.51 399.54) scale(.89 1)"><tspan x="0" y="0">Q</tspan></text>
      <text class="cls-8" transform="translate(504.27 407) scale(.52 .58)"><tspan x="0" y="0">nF2</tspan></text>
      <text class="cls-8" transform="translate(746.44 401.98) scale(.89 1)"><tspan x="0" y="0">Q</tspan></text>
      <text class="cls-8" transform="translate(760.2 409.44) scale(.52 .58)"><tspan x="0" y="0">nF3</tspan></text>
      <text class="cls-10" transform="translate(38.62 221.24) scale(.89 1)"><tspan x="0" y="0">A</tspan></text>
      <text class="cls-10" transform="translate(49.63 227.95) scale(.52 .58)"><tspan x="0" y="0">n</tspan></text>
      <text class="cls-10" transform="translate(55.44 221.24) scale(.89 1)"><tspan x="0" y="0" xml:space="preserve"> = argmax(min(F</tspan></text>
      <text class="cls-10" transform="translate(178.47 227.95) scale(.52 .58)"><tspan x="0" y="0">i</tspan></text>
      <text class="cls-10" transform="translate(180.93 221.24) scale(.89 1)"><tspan x="0" y="0">,Q</tspan></text>
      <text class="cls-10" transform="translate(197.03 227.95) scale(.52 .58)"><tspan x="0" y="0">nFi</tspan></text>
      <text class="cls-10" transform="translate(210.4 221.24) scale(.89 1)"><tspan x="0" y="0">) in F )</tspan></text>
      <g>
        <line class="cls-5" x1="895.98" y1="255.7" x2="895.98" y2="258.7"/>
        <line class="cls-1" x1="895.98" y1="265.01" x2="895.98" y2="350.11"/>
        <line class="cls-5" x1="895.98" y1="353.26" x2="895.98" y2="356.26"/>
      </g>
      <text class="cls-11" transform="translate(430.04 538.83)"><tspan x="0" y="0">(1)</tspan><tspan x="-85.81" y="19.65">Compute minimum overlap</tspan><tspan x="-66.75" y="39.3">pairs between a query</tspan><tspan x="-85.83" y="58.96">and the possible fragments </tspan></text>
      <text class="cls-11" transform="translate(694.11 538.83)"><tspan x="0" y="0">(2)</tspan><tspan x="-57.02" y="19.65">Extract the argmax </tspan><tspan x="-27.5" y="39.3">of all pairs </tspan><tspan x="-27.89" y="58.96">for a query</tspan></text>
      <text class="cls-8" transform="translate(913.35 313.74) scale(.89 1)"><tspan x="0" y="0">F</tspan></text>
      <text class="cls-8" transform="translate(923.07 321.19) scale(.52 .58)"><tspan x="0" y="0">4</tspan></text>
      <text class="cls-8" transform="translate(929.04 313.74) scale(.89 1)"><tspan x="0" y="0" xml:space="preserve"> = 41S</tspan></text>
      <text class="cls-8" transform="translate(934.35 340.85) scale(.89 1)"><tspan x="0" y="0">75%</tspan></text>
      <text class="cls-8" transform="translate(570.93 445.41) scale(.89 1)"><tspan x="0" y="0">85%</tspan></text>
      <text class="cls-8" transform="translate(575.21 471.56) scale(.89 1)"><tspan x="0" y="0">Q</tspan></text>
      <text class="cls-8" transform="translate(588.96 479.02) scale(.52 .58)"><tspan x="0" y="0">nF4</tspan></text>
      <line class="cls-6" x1="321.67" y1="422.94" x2="873.81" y2="422.94"/>
    </g>
  </g>
</svg>